<svg xmlns="http://www.w3.org/2000/svg" width="64" height="64" enable-background="new 0 0 512 512" viewBox="0 0 512 512" id="graph"><path d="M16.933,390.313c-2.092,0-3.852-1.626-3.988-3.743c-0.142-2.204,1.53-4.106,3.735-4.249
				c184.453-11.869,357.73-135.208,452.211-321.885c0.998-1.972,3.403-2.76,5.376-1.763c1.971,0.998,2.76,3.404,1.763,5.375
				c-46.966,92.795-114.612,172.223-195.627,229.698c-80.746,57.284-171.762,90.674-263.209,96.559
				C17.106,390.31,17.02,390.313,16.933,390.313z"></path><path d="M495.765 137.191c-1.675 0-3.235-1.061-3.794-2.736l-20.964-62.93c-1.121-3.391-4.802-5.241-8.214-4.139-.042.014-.084.027-.127.039-.171.05-.386.143-.655.285l-63.038 31.512c-1.972.985-4.378.187-5.366-1.79-.987-1.976-.187-4.379 1.79-5.366l62.96-31.472c.66-.35 1.349-.636 2.03-.837 7.561-2.416 15.725 1.722 18.213 9.248l20.961 62.92c.698 2.097-.435 4.361-2.53 5.06C496.61 137.125 496.185 137.191 495.765 137.191zM457.404 453.243c-2.209 0-4-1.791-4-4V187.06c0-2.209 1.791-4 4-4s4 1.791 4 4v262.184C461.404 451.452 459.613 453.243 457.404 453.243zM381.074 453.243c-2.209 0-4-1.791-4-4V240.935c0-2.209 1.791-4 4-4s4 1.791 4 4v208.309C385.074 451.452 383.283 453.243 381.074 453.243zM304.72 453.243c-2.209 0-4-1.791-4-4V305.65c0-2.209 1.791-4 4-4s4 1.791 4 4v143.593C308.72 451.452 306.929 453.243 304.72 453.243zM228.396 453.243c-2.209 0-4-1.791-4-4V346.979c0-2.209 1.791-4 4-4s4 1.791 4 4v102.264C232.396 451.452 230.604 453.243 228.396 453.243zM152.024 453.243c-2.209 0-4-1.791-4-4v-71.39c0-2.209 1.791-4 4-4s4 1.791 4 4v71.39C156.024 451.452 154.233 453.243 152.024 453.243zM75.676 453.243c-2.209 0-4-1.791-4-4V403.16c0-2.209 1.791-4 4-4s4 1.791 4 4v46.083C79.676 451.452 77.885 453.243 75.676 453.243z"></path></svg>