<?xml version="1.0" encoding="UTF-8"?>
<svg version="1.1" viewBox="0 0 991 878" width="1280" height="1280" xmlns="http://www.w3.org/2000/svg">
<path transform="translate(0)" d="m0 0h991v878h-991z" fill="#FEFEFE"/>
<path transform="translate(239,389)" d="m0 0h480l4 4v7l-4 4-3 1h-9v304l-5 5h-55l-5-5v-304h-33v223l-4 4-2 1h-53l-5-4-1-3v-221h-32v375l-2 5-5 3h-52l-5-3-2-5v-375h-32v466l-3 5-2 1h-56l-4-4v-468h-33v141l-5 5h-56l-4-5v-141h-9l-6-3-1-2v-7z"/>
<path transform="translate(639,12)" d="m0 0h26l22 3 19 5 20 8 19 10 14 10 13 11 12 12 13 17 9 15 9 19 7 22 4 22 1 13v13l-2 21-4 19-8 23-1 1h-320l-5-12-6-21-3-18-1-23 2-23 5-22 8-22 10-19 8-12 9-11 9-10 7-7 14-11 14-9 19-10 19-7 21-5z" fill="#FEFEFE"/>
<path transform="translate(639,12)" d="m0 0h26l22 3 19 5 20 8 19 10 14 10 13 11 12 12 13 17 9 15 9 19 7 22 4 22 1 13v13l-2 21-4 19-8 23-1 1h-320l-5-12-6-21-3-18-1-23 2-23 5-22 8-22 10-19 8-12 9-11 9-10 7-7 14-11 14-9 19-10 19-7 21-5zm5 18-23 3-19 5-15 6-19 10-15 11-10 9-12 12-13 18-10 19-7 19-4 17-2 14v28l4 24 4 13 1 1h105l5-12 7-10 9-7 10-4 4-1h16l10 2 11-13 11-14 13-16 11-14 11-13 4-2 6 1 3 3v7l-8 11-14 17-11 14-9 11-13 16-1 3 6 9 5 12h105l4-10 4-19 1-8v-30l-3-19-5-17-6-15-9-17-10-14-11-12-12-12-14-10-16-9-15-7-20-6-17-3-12-1z"/>
<path transform="translate(641,47)" d="m0 0h19l23 3 20 6 16 8 12 7 14 11 15 15 12 17 8 16 5 12 5 20 2 18v8l-3 5-3 2h-6l-5-4-1-4-2-22-5-19-7-16-8-13-8-10-9-10-14-11-18-10-16-6-13-3-8-1h-31l-18 4-16 6-18 10-16 13-10 11-7 10-9 16-6 17-4 20-1 15-3 5-3 2h-6l-5-4-1-8 2-21 5-20 9-21 9-14 7-9 9-10 8-8 15-11 16-9 18-7 18-4z"/>
<path transform="translate(81,167)" d="m0 0h26l15 43 5 15 14-43 5-14 1-1h25l4 50 2 28v10h-25l-1-21v-24l-7 25-7 20h-23l-12-37-2-8v44l-1 1h-25z" fill="#262262"/>
<path transform="translate(537,278)" d="m0 0h18l13 4 8 6 7 8 4 8 2 8v22l-3 10-6 10-7 7-10 5-9 2h-16l-13-4-9-6-7-9-4-9-2-11v-12l3-14 5-9 6-7 10-6z" fill="#262262"/>
<path transform="translate(225,166)" d="m0 0h18l10 3 10 6 7 8 5 11 2 10v14l-3 13-5 9-6 7-10 6-11 3h-16l-9-2-10-5-8-8-6-12-2-8v-20l4-13 6-9 9-8 10-4z" fill="#262262"/>
<path transform="translate(777,279)" d="m0 0h39l12 3 10 5 9 10 5 13 1 7v12l-3 13-5 9-4 5-9 6-11 4-6 1h-38z" fill="#262262"/>
<path transform="translate(77,279)" d="m0 0h39l12 3 8 4 7 6 6 10 3 9 1 14-2 13-4 10-9 10-10 6-13 3h-38z" fill="#262262"/>
<path transform="translate(424,279)" d="m0 0h45l11 4 5 4 3 5 1 4v12l-4 8-8 5 8 4 6 7 2 6v7l-3 9-6 7-8 4-10 2h-42z" fill="#262262"/>
<path transform="translate(291,167)" d="m0 0h23l12 19 15 25 1 1v-45h24v88h-23l-6-9-17-28-5-9v46h-24z" fill="#262262"/>
<path transform="translate(693,279)" d="m0 0h40l12 3 9 6 5 8 1 4v14l-4 10-5 5-2 3 14 29 2 6h-28l-11-27v-2h-8v29h-25z" fill="#262262"/>
<path transform="translate(331,279)" d="m0 0h25v33h25v-33h25v88h-25l-1-34-24-1v35h-25z" fill="#262262"/>
<path transform="translate(626,279)" d="m0 0h26l14 41 15 45v2h-26l-4-13v-3h-24l-2 9-2 7h-26l2-9 26-78z" fill="#262262"/>
<path transform="translate(407,167)" d="m0 0h26l14 41 15 45v2h-26l-4-13v-3h-24l-2 9-2 7h-26l2-9 26-78z" fill="#262262"/>
<path transform="translate(189,279)" d="m0 0h26l4 10 25 75v3h-25l-4-10-1-6h-24l-1 7-3 9h-26l3-11 25-75z" fill="#262262"/>
<path transform="translate(278,278)" d="m0 0h19l11 3 3 1v23l-10-5-8-2h-11l-4 1 1 7 8 5 16 8 8 7 4 8v13l-3 8-5 6-10 5-9 2h-20l-13-3-2-1v-21l17 5h15l4-3v-5l-5-4-19-9-8-7-4-9v-14l4-8 8-7z" fill="#262262"/>
<path transform="translate(228,186)" d="m0 0h11l7 4 5 10 1 5v12l-3 10-3 5-7 4h-10l-6-3-4-5-3-8v-18l4-10 6-5z" fill="#FEFEFE"/>
<path transform="translate(541,298)" d="m0 0h11l6 4 5 8 1 4v18l-4 10-6 5-3 1h-10l-7-4-5-10-1-6v-11l3-10 4-6z" fill="#FEFEFE"/>
<path transform="translate(802,299)" d="m0 0h10l8 3 6 8 2 8v10l-3 10-5 6-7 3h-11z" fill="#FEFEFE"/>
<path transform="translate(102,299)" d="m0 0h10l7 3 5 5 3 7 1 10-2 11-4 7-6 4-3 1h-11z" fill="#FEFEFE"/>
<path transform="translate(649,221)" d="m0 0 11 1 9 5 6 7 1 5h-48l1-5 7-8 8-4z" fill="#FEFEFE"/>
<path transform="translate(718,298)" d="m0 0h7l7 2 3 4v8l-4 5-2 1h-11z" fill="#FEFEFE"/>
<path transform="translate(449,332)" d="m0 0h14l5 5-1 7-5 4h-13z" fill="#FEFEFE"/>
<path transform="translate(638,303)" d="m0 0h2l4 19 2 10h-14l2-10z" fill="#FEFEFE"/>
<path transform="translate(449,298)" d="m0 0h11l4 3v8l-2 3-3 1h-9l-1-1z" fill="#FEFEFE"/>
<path transform="translate(419,191)" d="m0 0h2l4 19 2 10h-14l2-10z" fill="#FEFEFE"/>
<path transform="translate(202,303)" d="m0 0h1l6 25v4h-14l4-17z" fill="#FEFEFE"/>
</svg>
