<svg xmlns="http://www.w3.org/2000/svg" width="64" height="64" id="production"><path d="M57,52V47a.99974.99974,0,0,0-1-1H50a.99974.99974,0,0,0-1,1v5H45V47a.99974.99974,0,0,0-1-1H38a.99974.99974,0,0,0-1,1v5H33V47a.99974.99974,0,0,0-1-1H26a.99974.99974,0,0,0-1,1v5a5,5,0,0,0,0,10H57a5,5,0,0,0,0-10Zm-6-4h4v4H51ZM39,48h4v4H39ZM27,48h4v4H27ZM57,60H25a3,3,0,0,1,0-6H57a3,3,0,0,1,0,6Z"></path><rect width="2" height="2" x="25" y="56"></rect><rect width="2" height="2" x="31" y="56"></rect><rect width="2" height="2" x="37" y="56"></rect><rect width="2" height="2" x="43" y="56"></rect><rect width="2" height="2" x="49" y="56"></rect><rect width="2" height="2" x="55" y="56"></rect><path d="M8 15v6a.99974.99974 0 0 0 1 1h6a.99974.99974 0 0 0 1-1V15a.99974.99974 0 0 0-1-1H9A.99974.99974 0 0 0 8 15zm2 1h4v4H10zM44 2A18 18 0 1 0 62 20 18.02063 18.02063 0 0 0 44 2zm1 16.98883V13.58051c2.14075-.01984 4.23157-.10248 6.2406-.24683a29.3 29.3 0 0 1 .71979 5.34509C49.73431 18.86066 47.39636 18.96576 45 18.98883zM51.97949 20.683a29.54716 29.54716 0 0 1-.66308 5.63416c-2.04029.15234-4.1615.241-6.31641.26221V20.98877C47.39777 20.96606 49.74121 20.86249 51.97949 20.683zM45 11.58057V7.96979a18.30653 18.30653 0 0 0 4.02722-.61237 23.06574 23.06574 0 0 1 1.684 4.00781C48.8681 11.48969 46.95673 11.56213 45 11.58057zM44 4a15.888 15.888 0 0 1 5.62518 1.04053A15.74087 15.74087 0 0 1 44 6a15.74052 15.74052 0 0 1-5.62512-.95947A15.88764 15.88764 0 0 1 44 4zM38.56128 7.22882A17.7964 17.7964 0 0 0 43 7.96979v3.61078c-2.12329-.02-4.19507-.10266-6.18176-.24726A23.01068 23.01068 0 0 1 38.56128 7.22882zM35.56036 18.63989a29.27043 29.27043 0 0 1 .72614-5.33838c2.15167.16584 4.40558.25757 6.7135.279v5.40832C40.43176 18.96411 37.92786 18.84656 35.56036 18.63989zM43 20.98877v5.59064c-2.3266-.02283-4.61627-.12329-6.80414-.29853a29.55367 29.55367 0 0 1-.657-5.63708C37.92078 20.84772 40.42993 20.96442 43 20.98877zM36.082 6.11511c.19324.12464.40216.24109.61786.35462A25.4001 25.4001 0 0 0 34.78973 11.163c-1.31048-.127-2.57641-.2807-3.784-.4624A16.10208 16.10208 0 0 1 36.082 6.11511zm-6.2254 6.42511c1.40289.23072 2.878.42841 4.42425.58417a31.3259 31.3259 0 0 0-.71405 5.31647c-1.922-.2157-3.723-.49231-5.36926-.82459A15.87228 15.87228 0 0 1 29.85663 12.54022zM28 20c0-.12817.01624-.25226.01923-.37976 1.69647.33466 3.54736.61145 5.51385.82745a31.76109 31.76109 0 0 0 .57593 5.64124c-1.83692-.193-3.571-.44092-5.16889-.73767A15.891 15.891 0 0 1 28 20zm8.082 13.88489a16.104 16.104 0 0 1-6.1814-6.33386c1.47461.23858 3.05109.43505 4.69031.59368a25.76207 25.76207 0 0 0 2.109 5.38556C36.48419 33.6438 36.27527 33.76025 36.082 33.88489zM43 28.57935v3.45086a17.7964 17.7964 0 0 0-4.43872.741 23.23582 23.23582 0 0 1-1.84064-4.44629C38.75427 28.47272 40.86188 28.55872 43 28.57935zM44 36a15.88706 15.88706 0 0 1-5.62506-1.04053 16.96886 16.96886 0 0 1 11.25018 0A15.88789 15.88789 0 0 1 44 36zm5.02722-3.35742A18.30653 18.30653 0 0 0 45 32.03021V28.57935c1.96588-.019 3.90814-.091 5.78918-.21778A23.24469 23.24469 0 0 1 49.02722 32.64258zM51.918 33.88489a8.39224 8.39224 0 0 0-.99109-.55414 25.8532 25.8532 0 0 0 1.98822-5.1377c1.81873-.1654 3.56128-.37945 5.18427-.642A16.104 16.104 0 0 1 51.918 33.88489zM60 20a15.89092 15.89092 0 0 1-.94006 5.35126c-1.73853.32293-3.64276.58587-5.65955.78552a31.7628 31.7628 0 0 0 .58447-5.63733c2.146-.22266 4.16126-.51733 5.99591-.87921C59.98376 19.74774 60 19.87183 60 20zm-.19757-2.38373c-1.78192.35968-3.74768.65314-5.84815.8758a31.34082 31.34082 0 0 0-.706-5.32483c1.71478-.163 3.35169-.37317 4.89508-.627A15.87228 15.87228 0 0 1 59.80243 17.61627zm-7.06024-6.41168a25.53774 25.53774 0 0 0-1.81531-4.53534 8.39224 8.39224 0 0 0 .99109-.55414 16.10208 16.10208 0 0 1 5.07635 4.58545C55.64447 10.90369 54.21887 11.07 52.74219 11.20459zM2.20117 61.60205A1.00226 1.00226 0 0 0 3 62H13a1.00008 1.00008 0 0 0 .96191-1.2749l-2-7A1.00093 1.00093 0 0 0 11 53V37.6178A3.97243 3.97243 0 0 0 11.858 36h3.32636a2.90045 2.90045 0 0 0 3.28057 1.953l2.101 2.80127L18.44531 42.168a.9993.9993 0 0 0-.27734 1.38672l2 3L21.832 45.44531l-1.44531-2.168 4.33594-2.89062 1.44531 2.168L27.832 41.44531l-2-3a.99886.99886 0 0 0-1.38672-.27734l-2.21295 1.47534-1.99683-2.66248A2.98968 2.98968 0 1 0 15.18427 34H11.858A3.98962 3.98962 0 1 0 5 37.6178V53a1.00093 1.00093 0 0 0-.96191.7251l-2 7A1.00238 1.00238 0 0 0 2.20117 61.60205zM18 34a1 1 0 1 1-1 1A1.001 1.001 0 0 1 18 34zM8 33a2 2 0 1 1-2 2A2.00229 2.00229 0 0 1 8 33zm1 5.858V53H7V38.858A3.9534 3.9534 0 0 0 8 39 3.9534 3.9534 0 0 0 9 38.858zM5.75391 55h4.49218l1.42774 5H4.32617zM11.16992 24.95117l-.23437 1.98633a9.11654 9.11654 0 0 0 2.16406-.00391l-.24219-1.98535A7.12 7.12 0 0 1 11.16992 24.95117zM3.2666 20.18311L5.208 19.70068A7.07421 7.07421 0 0 1 5 18.02588l-2 .00879A9.05845 9.05845 0 0 0 3.2666 20.18311zM21 18v-.061L19 18a7.03251 7.03251 0 0 1-.20117 1.67432l1.9414.47656A8.99378 8.99378 0 0 0 21 18zM20.72559 15.78027a8.99033 8.99033 0 0 0-.78418-2.0205l-1.76368.94335a6.99034 6.99034 0 0 1 .61036 1.57129zM14.49219 24.54346l.71484 1.86816a8.992 8.992 0 0 0 1.91406-1.01074l-1.13867-1.64356A7.01283 7.01283 0 0 1 14.49219 24.54346zM18.74121 23.96387a8.97485 8.97485 0 0 0 1.23242-1.78418L18.20215 21.25a6.96985 6.96985 0 0 1-.957 1.38672zM17.208 13.32324l1.48828-1.33594a9.03261 9.03261 0 0 0-1.63086-1.42675l-1.12695 1.65234A7.04256 7.04256 0 0 1 17.208 13.32324zM4.044 22.21094A9.07935 9.07935 0 0 0 5.28027 23.9873l1.49414-1.33007a7.06487 7.06487 0 0 1-.96484-1.38477zM8.82812 26.4248l.70508-1.87207a6.97733 6.97733 0 0 1-1.49414-.78027L6.90625 25.41992A8.96387 8.96387 0 0 0 8.82812 26.4248zM3.251 15.88281l1.94336.46973a6.95845 6.95845 0 0 1 .59179-1.57813l-1.77539-.92285A8.98035 8.98035 0 0 0 3.251 15.88281zM5.23633 12.063L6.73828 13.3833a7.08931 7.08931 0 0 1 1.25781-1.12549L6.84961 10.61914A9.03905 9.03905 0 0 0 5.23633 12.063zM13.03027 9.05811l-.22656 1.9873a6.93756 6.93756 0 0 1 1.63867.39209l.69727-1.875A8.99009 8.99009 0 0 0 13.03027 9.05811zM11.11426 11.05518l-.25-1.98438a8.96112 8.96112 0 0 0-2.10254.5293l.7207 1.86621A6.93257 6.93257 0 0 1 11.11426 11.05518zM17 7h7.58594L23.293 8.293 24.707 9.707l3-3a.99962.99962 0 0 0 0-1.41406l-3-3L23.293 3.707 24.58594 5H17z"></path></svg>